<svg xmlns="http://www.w3.org/2000/svg" viewBox="0 0 118.87 34.63"><defs><style>.cls-1{fill:#32c56a;}.cls-1,.cls-2,.cls-3{stroke:#000;stroke-miterlimit:10;stroke-width:0.5px;}.cls-2{fill:#f4f4f3;}.cls-3{fill:#e45339;}</style></defs><g id="Layer_2" data-name="Layer 2"><g id="Layer_2-2" data-name="Layer 2"><path class="cls-1" d="M.3,7.13,10,13.41a.11.11,0,0,0,.11,0L31.26.44a.11.11,0,0,0-.08-.19L.33,6.94A.1.1,0,0,0,.3,7.13Z"/><path class="cls-2" d="M10.88,30.81,27.46,4.69a.1.1,0,0,0-.14-.14L7.88,17.23a.11.11,0,0,0,0,.11l2.86,13.44A.1.1,0,0,0,10.88,30.81Z"/><path class="cls-3" d="M31.3,1.7,25.52,34.29a.1.1,0,0,1-.18.05l-7.67-10.1a.13.13,0,0,1,0-.12L31.11,1.63A.1.1,0,0,1,31.3,1.7Z"/><path d="M34.45,13.68l1.83-11h7.95l-.4,2.41h-5l-.31,1.87h4.55l-.39,2.35H38.17l-.33,2h4.94l-.4,2.41Z"/><path d="M46.22,13.68,44.64,5.4h3l.45,3.78c.07.56.12,1.13.14,1.72s0,1.21,0,1.89h-.47c.23-.68.45-1.31.67-1.89s.44-1.16.69-1.72L50.85,5.4h3.2l-4.33,8.28Z"/><path d="M57.34,13.83a4.33,4.33,0,0,1-2.06-.44A3,3,0,0,1,54,12.17a3.71,3.71,0,0,1-.44-1.86,5.56,5.56,0,0,1,.33-1.91,4.72,4.72,0,0,1,1-1.6,4.38,4.38,0,0,1,1.53-1.1,5,5,0,0,1,2.08-.4,4.41,4.41,0,0,1,2,.44A3,3,0,0,1,61.78,7a3.78,3.78,0,0,1,.44,1.85,5.74,5.74,0,0,1-.32,1.9A4.91,4.91,0,0,1,61,12.33a4.61,4.61,0,0,1-1.53,1.1A5.09,5.09,0,0,1,57.34,13.83Zm.12-2.22a1.2,1.2,0,0,0,.84-.31,2.18,2.18,0,0,0,.54-.78,4.34,4.34,0,0,0,.3-1,6.42,6.42,0,0,0,.09-.87A1.49,1.49,0,0,0,59.11,8a.81.81,0,0,0-.31-.39.89.89,0,0,0-.47-.13,1.2,1.2,0,0,0-.85.31,2.16,2.16,0,0,0-.55.76,4.62,4.62,0,0,0-.29,1,4.94,4.94,0,0,0-.09.87,1.34,1.34,0,0,0,.25.88A.79.79,0,0,0,57.46,11.61Z"/><path d="M67.5,2.65l-1.82,11h-3l1.83-11Z"/><path d="M70.07,13.79a2.56,2.56,0,0,1-1.46-.4,2.16,2.16,0,0,1-.83-1.11,3.24,3.24,0,0,1-.09-1.6l.87-5.28h3l-.77,4.65a1.29,1.29,0,0,0,.16,1,.91.91,0,0,0,.81.35,1.29,1.29,0,0,0,.66-.16,1.24,1.24,0,0,0,.49-.45,1.88,1.88,0,0,0,.27-.71l.77-4.65h3l-1.37,8.28H72.74L73,11.57h.09a4.65,4.65,0,0,1-1.18,1.58A2.77,2.77,0,0,1,70.07,13.79Z"/><path d="M77.13,13.68,77.41,12l4.26-4.33v0H78.24l.38-2.27h7l-.31,1.83-3.91,4.14v.05h3.36l-.38,2.26Z"/><path d="M86,13.68,87.37,5.4h3L89,13.68Zm3-9.12a1.22,1.22,0,0,1-1-.4,1.11,1.11,0,0,1-.27-1,1.52,1.52,0,0,1,.59-1,1.75,1.75,0,0,1,1.1-.4,1.26,1.26,0,0,1,1,.4,1.11,1.11,0,0,1,.27,1,1.55,1.55,0,0,1-.59,1A1.7,1.7,0,0,1,89,4.56Z"/><path d="M94.61,13.83a4.33,4.33,0,0,1-2.06-.44,3,3,0,0,1-1.29-1.22,3.81,3.81,0,0,1-.43-1.86,5.8,5.8,0,0,1,.32-1.91,5.07,5.07,0,0,1,.95-1.6,4.42,4.42,0,0,1,1.54-1.1,5,5,0,0,1,2.07-.4,4.45,4.45,0,0,1,2.06.44A3,3,0,0,1,99.05,7a3.77,3.77,0,0,1,.43,1.85,5.74,5.74,0,0,1-.31,1.9,5.09,5.09,0,0,1-.94,1.61,4.61,4.61,0,0,1-1.53,1.1A5.09,5.09,0,0,1,94.61,13.83Zm.12-2.22a1.2,1.2,0,0,0,.84-.31,2.31,2.31,0,0,0,.54-.78,4.31,4.31,0,0,0,.29-1,5.13,5.13,0,0,0,.09-.87A1.5,1.5,0,0,0,96.38,8a.87.87,0,0,0-.31-.39.89.89,0,0,0-.47-.13,1.2,1.2,0,0,0-.85.31,2.16,2.16,0,0,0-.55.76,4.09,4.09,0,0,0-.29,1,4.94,4.94,0,0,0-.09.87,1.34,1.34,0,0,0,.25.88A.78.78,0,0,0,94.73,11.61Z"/><path d="M103.7,9.13l-.76,4.55h-3l1.37-8.28h2.79l-.27,2.12-.12-.09a4.4,4.4,0,0,1,1.14-1.54,2.68,2.68,0,0,1,1.77-.59,2.59,2.59,0,0,1,1.54.43,2.24,2.24,0,0,1,.87,1.15,3.14,3.14,0,0,1,.1,1.63l-.85,5.17h-3l.79-4.74A1.07,1.07,0,0,0,106,8a1,1,0,0,0-.79-.31,1.36,1.36,0,0,0-.7.19,1.33,1.33,0,0,0-.5.5A1.87,1.87,0,0,0,103.7,9.13Z"/><path d="M113.94,13.86a4.57,4.57,0,0,1-2-.41,3,3,0,0,1-1.32-1.17,3.39,3.39,0,0,1-.46-1.82,5.56,5.56,0,0,1,.34-2,5.18,5.18,0,0,1,1-1.64A4.73,4.73,0,0,1,113,5.72a4.91,4.91,0,0,1,2.07-.42,4.78,4.78,0,0,1,1.72.3,3,3,0,0,1,1.24.87,2.12,2.12,0,0,1,.46,1.37A1.76,1.76,0,0,1,118,9.18a3.34,3.34,0,0,1-1.52.76,13.13,13.13,0,0,1-2.37.33c-.92.05-1.95.08-3.09.08l.27-1.63,2.38,0c.6,0,1,0,1.37-.09a1.58,1.58,0,0,0,.63-.2.42.42,0,0,0,.17-.34.55.55,0,0,0-.27-.5,1.66,1.66,0,0,0-1.77.17,2,2,0,0,0-.53.87,4.77,4.77,0,0,0-.21,1.05c0,.35,0,.64,0,.87a1.83,1.83,0,0,0,.1.64.91.91,0,0,0,.36.44,1.38,1.38,0,0,0,.71.16,1.8,1.8,0,0,0,.87-.2.94.94,0,0,0,.49-.55l2.65.19a3.47,3.47,0,0,1-1.48,1.91A4.82,4.82,0,0,1,113.94,13.86Z"/><path d="M39.27,16.55l-1.83,11h-3l1.83-11Zm-.21,11H35.68L36.1,25H39a3.78,3.78,0,0,0,1.44-.26,2.25,2.25,0,0,0,1-.91,5,5,0,0,0,.6-1.79,4.17,4.17,0,0,0,0-1.81,1.37,1.37,0,0,0-.72-.91A3.32,3.32,0,0,0,40,19.1H37l.43-2.55h2.9a5.6,5.6,0,0,1,2.86.67,3.7,3.7,0,0,1,1.65,1.9,5.3,5.3,0,0,1,.21,3A7.56,7.56,0,0,1,44,25a5.28,5.28,0,0,1-2,1.9A6.21,6.21,0,0,1,39.06,27.59Z"/><path d="M45.46,27.59l1.37-8.28h3l-1.37,8.28Zm3-9.13a1.22,1.22,0,0,1-1-.4,1.09,1.09,0,0,1-.27-1,1.55,1.55,0,0,1,.59-1,1.74,1.74,0,0,1,1.1-.39,1.25,1.25,0,0,1,1,.39,1.12,1.12,0,0,1,.27,1,1.5,1.5,0,0,1-.59,1A1.7,1.7,0,0,1,48.45,18.46Z"/><path d="M53.52,30.86a5.64,5.64,0,0,1-2-.31,2.89,2.89,0,0,1-1.28-.86,1.89,1.89,0,0,1-.44-1.25l2.62-.19a.48.48,0,0,0,.14.35.81.81,0,0,0,.38.2,2.55,2.55,0,0,0,.59.06,2,2,0,0,0,1.24-.36,1.64,1.64,0,0,0,.58-1l.25-1.31h-.28a3,3,0,0,1-.56.71,2.48,2.48,0,0,1-.73.45,2.77,2.77,0,0,1-.94.15,3.2,3.2,0,0,1-1.43-.32,2.29,2.29,0,0,1-1-1,3.6,3.6,0,0,1-.38-1.75,7.43,7.43,0,0,1,.25-1.86,6.07,6.07,0,0,1,.75-1.68,4,4,0,0,1,1.21-1.2,3,3,0,0,1,1.66-.46,2.65,2.65,0,0,1,.87.14,2.12,2.12,0,0,1,1.12.9,2.28,2.28,0,0,1,.24.61h.06l.26-1.54h3L58.3,27.37a4,4,0,0,1-.84,1.94,3.92,3.92,0,0,1-1.66,1.17A6.49,6.49,0,0,1,53.52,30.86Zm.71-5.49a1.36,1.36,0,0,0,.82-.26,2,2,0,0,0,.59-.65,3.22,3.22,0,0,0,.34-.88,3.6,3.6,0,0,0,.12-.9,1.5,1.5,0,0,0-.23-.89.84.84,0,0,0-.7-.3,1.26,1.26,0,0,0-.8.26,2.06,2.06,0,0,0-.59.68,3.29,3.29,0,0,0-.34.89,3.74,3.74,0,0,0-.12.91,1.35,1.35,0,0,0,.23.85A.82.82,0,0,0,54.23,25.37Z"/><path d="M59.78,27.59l1.37-8.28h3l-1.37,8.28Zm3-9.13a1.24,1.24,0,0,1-1-.4,1.09,1.09,0,0,1-.27-1,1.55,1.55,0,0,1,.59-1,1.74,1.74,0,0,1,1.1-.39,1.25,1.25,0,0,1,1,.39,1.09,1.09,0,0,1,.27,1,1.48,1.48,0,0,1-.58,1A1.7,1.7,0,0,1,62.77,18.46Z"/><path d="M70.49,19.31l-.36,2.16H64.68L65,19.31Zm-4.07-2h3l-1.26,7.59a.48.48,0,0,0,.08.39.53.53,0,0,0,.4.13,2.51,2.51,0,0,0,.4,0l.34-.06v2.13a7.67,7.67,0,0,1-1.85.23,2.65,2.65,0,0,1-2-.63,2.08,2.08,0,0,1-.4-1.88Z"/><path d="M73.14,27.69a2.48,2.48,0,0,1-2.51-1.86,5.27,5.27,0,0,1,0-2.37A6.4,6.4,0,0,1,71.45,21a4.14,4.14,0,0,1,1.44-1.37,3.45,3.45,0,0,1,1.64-.44,2.35,2.35,0,0,1,1,.21,1.9,1.9,0,0,1,.68.57,2.11,2.11,0,0,1,.35.78h0l.24-1.45h3l-1.37,8.28H75.53l.22-1.37h-.06a2.66,2.66,0,0,1-.62.76,3,3,0,0,1-.86.52A2.83,2.83,0,0,1,73.14,27.69Zm1.47-2.28a1.24,1.24,0,0,0,.75-.24,2,2,0,0,0,.57-.68,3.37,3.37,0,0,0,.32-1,2.94,2.94,0,0,0,0-1.06,1.26,1.26,0,0,0-.34-.68.93.93,0,0,0-.67-.23,1.18,1.18,0,0,0-.73.23,1.91,1.91,0,0,0-.56.68,3.58,3.58,0,0,0-.33,1.06,3,3,0,0,0,0,1,1.15,1.15,0,0,0,.33.68A.92.92,0,0,0,74.61,25.41Z"/><path d="M84.79,16.55,83,27.59H80l1.83-11Z"/><path d="M88.6,27.77a4.71,4.71,0,0,1-2-.41,3,3,0,0,1-1.32-1.17,3.46,3.46,0,0,1-.47-1.83,5.51,5.51,0,0,1,.35-1.94,5.11,5.11,0,0,1,1-1.65,4.64,4.64,0,0,1,1.57-1.14,5.12,5.12,0,0,1,3.78-.13,2.9,2.9,0,0,1,1.24.87,2.1,2.1,0,0,1,.46,1.37,1.76,1.76,0,0,1-.52,1.34,3.39,3.39,0,0,1-1.52.76,12.3,12.3,0,0,1-2.37.33c-.92.06-2,.08-3.1.08l.28-1.62q1.47,0,2.37,0a10.41,10.41,0,0,0,1.37-.09,1.44,1.44,0,0,0,.64-.2.42.42,0,0,0,.17-.34.57.57,0,0,0-.27-.5,1.41,1.41,0,0,0-.78-.18,1.37,1.37,0,0,0-1,.35,2.15,2.15,0,0,0-.53.87,4.89,4.89,0,0,0-.21,1,7.58,7.58,0,0,0,0,.87,1.83,1.83,0,0,0,.1.64.8.8,0,0,0,.35.44,1.33,1.33,0,0,0,.72.16,1.86,1.86,0,0,0,.87-.19,1,1,0,0,0,.49-.56l2.64.19A3.47,3.47,0,0,1,91.36,27,4.9,4.9,0,0,1,88.6,27.77Z"/></g></g></svg>