<svg xmlns="http://www.w3.org/2000/svg" viewBox="0 0 119.74 33.71"><defs><style>.cls-1{fill:#32c56a;}.cls-2{fill:#f4f4f3;}.cls-3{fill:#e45339;}.cls-4{fill:#fff;}</style></defs><g id="Layer_2" data-name="Layer 2"><g id="Layer_2-2" data-name="Layer 2"><polygon class="cls-1" points="0 7.52 10.09 13.77 31.54 0 0 7.52"/><polygon class="cls-2" points="10.76 30.76 27.73 4.02 7.84 17.01 10.76 30.76"/><polygon class="cls-3" points="31.75 0.52 24.86 33.71 17.32 23.15 31.75 0.52"/><path class="cls-4" d="M35.32,13.77l1.83-11h8l-.4,2.42h-5L39.43,7H44l-.39,2.36H39l-.33,2h4.94l-.4,2.42Z"/><path class="cls-4" d="M47.09,13.77,45.51,5.49h3L49,9.27c.07.55.12,1.12.14,1.71s0,1.22,0,1.9h-.47c.23-.68.45-1.31.67-1.9s.44-1.15.69-1.71l1.67-3.78h3.2l-4.33,8.28Z"/><path class="cls-4" d="M58.21,13.92a4.45,4.45,0,0,1-2.06-.44,2.93,2.93,0,0,1-1.28-1.23,3.7,3.7,0,0,1-.44-1.85,5.52,5.52,0,0,1,.33-1.91,4.76,4.76,0,0,1,1-1.61,4.51,4.51,0,0,1,1.53-1.1,5.21,5.21,0,0,1,2.08-.4,4.41,4.41,0,0,1,2,.44,3,3,0,0,1,1.28,1.23,3.8,3.8,0,0,1,.44,1.85,5.8,5.8,0,0,1-.32,1.91,4.86,4.86,0,0,1-.94,1.6,4.47,4.47,0,0,1-1.53,1.1A5.09,5.09,0,0,1,58.21,13.92Zm.12-2.23a1.2,1.2,0,0,0,.84-.31,2,2,0,0,0,.54-.78,4.19,4.19,0,0,0,.3-1,6.12,6.12,0,0,0,.09-.87A1.49,1.49,0,0,0,60,8.12a.74.74,0,0,0-.31-.38.81.81,0,0,0-.47-.13,1.24,1.24,0,0,0-.85.3,2.2,2.2,0,0,0-.55.77,4.36,4.36,0,0,0-.29,1,4.94,4.94,0,0,0-.09.87,1.37,1.37,0,0,0,.25.89A.81.81,0,0,0,58.33,11.69Z"/><path class="cls-4" d="M68.37,2.73l-1.82,11h-3l1.83-11Z"/><path class="cls-4" d="M70.94,13.87a2.49,2.49,0,0,1-1.46-.4,2.14,2.14,0,0,1-.83-1.1,3.29,3.29,0,0,1-.09-1.61l.87-5.27h3l-.77,4.65a1.27,1.27,0,0,0,.16,1,.91.91,0,0,0,.81.36,1.4,1.4,0,0,0,.66-.16,1.35,1.35,0,0,0,.49-.46,1.9,1.9,0,0,0,.27-.7l.77-4.65h3L76.4,13.77H73.61l.29-2.12H74a4.56,4.56,0,0,1-1.18,1.58A2.72,2.72,0,0,1,70.94,13.87Z"/><path class="cls-4" d="M78,13.77l.28-1.65L82.54,7.8v0H79.11l.38-2.26h7l-.31,1.82-3.91,4.15v0h3.36l-.38,2.27Z"/><path class="cls-4" d="M86.87,13.77l1.37-8.28h3l-1.37,8.28Zm3-9.13a1.22,1.22,0,0,1-1-.4,1.09,1.09,0,0,1-.27-1,1.55,1.55,0,0,1,.59-1,1.74,1.74,0,0,1,1.1-.39,1.25,1.25,0,0,1,1,.39,1.12,1.12,0,0,1,.27,1,1.5,1.5,0,0,1-.59,1A1.7,1.7,0,0,1,89.86,4.64Z"/><path class="cls-4" d="M95.48,13.92a4.45,4.45,0,0,1-2.06-.44,3,3,0,0,1-1.29-1.23,3.8,3.8,0,0,1-.43-1.85A5.76,5.76,0,0,1,92,8.49a5.11,5.11,0,0,1,1-1.61,4.55,4.55,0,0,1,1.54-1.1,5.2,5.2,0,0,1,2.07-.4,4.45,4.45,0,0,1,2.06.44,3,3,0,0,1,1.28,1.23,3.8,3.8,0,0,1,.43,1.85,5.79,5.79,0,0,1-.31,1.91,5,5,0,0,1-.94,1.6,4.47,4.47,0,0,1-1.53,1.1A5.09,5.09,0,0,1,95.48,13.92Zm.12-2.23a1.2,1.2,0,0,0,.84-.31A2.13,2.13,0,0,0,97,10.6a4.16,4.16,0,0,0,.29-1,4.94,4.94,0,0,0,.09-.87,1.5,1.5,0,0,0-.11-.64.79.79,0,0,0-.31-.38.81.81,0,0,0-.47-.13,1.24,1.24,0,0,0-.85.3,2.2,2.2,0,0,0-.55.77,3.87,3.87,0,0,0-.29,1,4.94,4.94,0,0,0-.09.87,1.37,1.37,0,0,0,.25.89A.8.8,0,0,0,95.6,11.69Z"/><path class="cls-4" d="M104.57,9.21l-.76,4.56h-3l1.37-8.28H105l-.27,2.12-.12-.1A4.27,4.27,0,0,1,105.75,6a2.64,2.64,0,0,1,1.77-.6,2.67,2.67,0,0,1,1.54.43A2.28,2.28,0,0,1,109.93,7a3.15,3.15,0,0,1,.1,1.63l-.85,5.18h-3L107,9a1.07,1.07,0,0,0-.17-.92,1,1,0,0,0-.79-.3,1.35,1.35,0,0,0-.7.18,1.41,1.41,0,0,0-.5.5A1.93,1.93,0,0,0,104.57,9.21Z"/><path class="cls-4" d="M114.81,14a4.71,4.71,0,0,1-2-.41,3,3,0,0,1-1.32-1.17,3.46,3.46,0,0,1-.46-1.83,5.5,5.5,0,0,1,.34-1.94,5.11,5.11,0,0,1,1-1.65,4.84,4.84,0,0,1,1.57-1.14A4.76,4.76,0,0,1,116,5.38a4.69,4.69,0,0,1,1.71.3,2.93,2.93,0,0,1,1.25.87,2.16,2.16,0,0,1,.46,1.37,1.8,1.8,0,0,1-.53,1.35,3.44,3.44,0,0,1-1.52.75,12.3,12.3,0,0,1-2.37.33c-.92.06-2,.08-3.09.08l.27-1.62c1,0,1.78,0,2.38,0a10.55,10.55,0,0,0,1.37-.09,1.44,1.44,0,0,0,.63-.2.42.42,0,0,0,.17-.34.57.57,0,0,0-.27-.5,1.66,1.66,0,0,0-1.77.17,2.15,2.15,0,0,0-.53.87,4.89,4.89,0,0,0-.21,1.05c0,.35,0,.64,0,.87a1.83,1.83,0,0,0,.1.64.87.87,0,0,0,.36.44,1.29,1.29,0,0,0,.71.16,1.8,1.8,0,0,0,.87-.19,1,1,0,0,0,.49-.56l2.65.19a3.49,3.49,0,0,1-1.48,1.92A4.9,4.9,0,0,1,114.81,14Z"/><path class="cls-4" d="M40.14,16.64l-1.83,11h-3l1.83-11Zm-.21,11H36.55L37,25.12h2.91a3.59,3.59,0,0,0,1.44-.26,2.29,2.29,0,0,0,1-.9,5,5,0,0,0,.6-1.8,4.12,4.12,0,0,0,0-1.8,1.35,1.35,0,0,0-.72-.91,3.16,3.16,0,0,0-1.41-.27H37.91l.43-2.54h2.9a5.71,5.71,0,0,1,2.86.66,3.7,3.7,0,0,1,1.65,1.9,5.3,5.3,0,0,1,.21,3,7.61,7.61,0,0,1-1.07,3,5.33,5.33,0,0,1-2,1.89A6.21,6.21,0,0,1,39.93,27.67Z"/><path class="cls-4" d="M46.33,27.67l1.37-8.28h3l-1.37,8.28Zm3-9.12a1.26,1.26,0,0,1-1-.4,1.12,1.12,0,0,1-.27-1,1.5,1.5,0,0,1,.59-1,1.7,1.7,0,0,1,1.1-.4,1.22,1.22,0,0,1,1,.4,1.09,1.09,0,0,1,.27,1,1.55,1.55,0,0,1-.59,1A1.75,1.75,0,0,1,49.32,18.55Z"/><path class="cls-4" d="M54.39,30.94a5.64,5.64,0,0,1-2-.31,2.88,2.88,0,0,1-1.28-.85,1.9,1.9,0,0,1-.44-1.26l2.62-.19a.49.49,0,0,0,.14.36.9.9,0,0,0,.38.19,2.51,2.51,0,0,0,.59.07,2,2,0,0,0,1.24-.37,1.64,1.64,0,0,0,.58-1l.25-1.31h-.29a2.6,2.6,0,0,1-.55.71,2.12,2.12,0,0,1-.73.45,2.54,2.54,0,0,1-.94.16,3.07,3.07,0,0,1-1.43-.33,2.37,2.37,0,0,1-1-1,3.68,3.68,0,0,1-.37-1.74,7,7,0,0,1,.25-1.87A5.88,5.88,0,0,1,52.14,21a3.88,3.88,0,0,1,1.21-1.21A3.08,3.08,0,0,1,55,19.29a2.41,2.41,0,0,1,.87.14,1.92,1.92,0,0,1,.66.37,2,2,0,0,1,.46.52,2.42,2.42,0,0,1,.24.61h.06l.26-1.54h2.95l-1.34,8.07a4,4,0,0,1-.84,1.94,3.9,3.9,0,0,1-1.66,1.16A6.27,6.27,0,0,1,54.39,30.94Zm.71-5.49a1.35,1.35,0,0,0,.82-.25,2.09,2.09,0,0,0,.59-.66,3.28,3.28,0,0,0,.34-.87,3.74,3.74,0,0,0,.12-.91,1.46,1.46,0,0,0-.23-.88.82.82,0,0,0-.7-.31,1.32,1.32,0,0,0-.8.26,2.17,2.17,0,0,0-.59.68,3.42,3.42,0,0,0-.34.89,3.81,3.81,0,0,0-.12.92,1.32,1.32,0,0,0,.23.84A.82.82,0,0,0,55.1,25.45Z"/><path class="cls-4" d="M60.65,27.67,62,19.39h3l-1.37,8.28Zm3-9.12a1.27,1.27,0,0,1-1-.4,1.12,1.12,0,0,1-.27-1,1.5,1.5,0,0,1,.59-1,1.7,1.7,0,0,1,1.1-.4,1.22,1.22,0,0,1,1,.4,1.06,1.06,0,0,1,.27,1,1.53,1.53,0,0,1-.58,1A1.76,1.76,0,0,1,63.64,18.55Z"/><path class="cls-4" d="M71.36,19.39,71,21.55H65.55l.36-2.16Zm-4.07-2h3L69,25a.47.47,0,0,0,.08.39.49.49,0,0,0,.4.13l.4,0a1.72,1.72,0,0,0,.34-.07v2.13a6.59,6.59,0,0,1-1,.19c-.31,0-.59.05-.86.05a2.61,2.61,0,0,1-2-.64,2.06,2.06,0,0,1-.4-1.87Z"/><path class="cls-4" d="M74,27.77a2.65,2.65,0,0,1-1.55-.46,2.6,2.6,0,0,1-1-1.4,5.27,5.27,0,0,1,0-2.37,6.35,6.35,0,0,1,.87-2.44,4.05,4.05,0,0,1,1.44-1.37,3.34,3.34,0,0,1,1.64-.44,2.35,2.35,0,0,1,1,.21,1.81,1.81,0,0,1,.68.57,2,2,0,0,1,.35.77h0l.24-1.45h3l-1.37,8.28H76.4l.22-1.36h-.06a2.76,2.76,0,0,1-.62.75,3,3,0,0,1-.86.52A2.83,2.83,0,0,1,74,27.77Zm1.47-2.28a1.24,1.24,0,0,0,.75-.24,2,2,0,0,0,.57-.67,3.43,3.43,0,0,0,.32-1,2.94,2.94,0,0,0,0-1.06,1.19,1.19,0,0,0-.34-.67.93.93,0,0,0-.67-.24,1.18,1.18,0,0,0-.73.24,1.79,1.79,0,0,0-.56.67,3.78,3.78,0,0,0-.33,1.06,3.09,3.09,0,0,0,0,1.05,1.15,1.15,0,0,0,.33.67A.88.88,0,0,0,75.48,25.49Z"/><path class="cls-4" d="M85.66,16.64l-1.83,11h-3l1.83-11Z"/><path class="cls-4" d="M89.47,27.85a4.71,4.71,0,0,1-2-.41,3,3,0,0,1-1.32-1.17,3.46,3.46,0,0,1-.47-1.83A5.55,5.55,0,0,1,86,22.5a5.34,5.34,0,0,1,1-1.65,4.64,4.64,0,0,1,1.57-1.14,4.89,4.89,0,0,1,2.06-.42,4.74,4.74,0,0,1,1.72.3,3,3,0,0,1,1.24.86A2.11,2.11,0,0,1,94,21.83a1.74,1.74,0,0,1-.53,1.34,3.29,3.29,0,0,1-1.51.75,13.06,13.06,0,0,1-2.37.34c-.92,0-1.95.08-3.1.08l.28-1.63,2.37,0c.6,0,1.06-.05,1.37-.09a1.42,1.42,0,0,0,.64-.21.39.39,0,0,0,.17-.33.58.58,0,0,0-.27-.51,1.5,1.5,0,0,0-.78-.17,1.33,1.33,0,0,0-1,.35,2,2,0,0,0-.53.87,4.68,4.68,0,0,0-.21,1,7.62,7.62,0,0,0,0,.88,1.77,1.77,0,0,0,.1.63.77.77,0,0,0,.35.44,1.33,1.33,0,0,0,.72.16,1.86,1.86,0,0,0,.87-.19.94.94,0,0,0,.49-.55l2.64.19a3.48,3.48,0,0,1-1.47,1.91A4.9,4.9,0,0,1,89.47,27.85Z"/></g></g></svg>