<svg xmlns="http://www.w3.org/2000/svg" viewBox="0 0 96.22 102.16"><defs><style>.cls-1{fill:#32c56a;}.cls-1,.cls-2,.cls-3{stroke:#000;stroke-miterlimit:10;stroke-width:0.5px;}.cls-2{fill:#f4f4f3;}.cls-3{fill:#e45339;}</style></defs><g id="Layer_2" data-name="Layer 2"><g id="Layer_2-2" data-name="Layer 2"><path class="cls-1" d="M.48,23.21,30,41.5a.51.51,0,0,0,.53,0L93.41,1.16A.49.49,0,0,0,93,.27l-92.4,22A.49.49,0,0,0,.48,23.21Z"/><path class="cls-2" d="M33,92.59,83,13.81a.5.5,0,0,0-.69-.68L23.71,51.38a.5.5,0,0,0-.21.52l8.62,40.53A.49.49,0,0,0,33,92.59Z"/><path class="cls-3" d="M96,3.81,75.68,101.52a.5.5,0,0,1-.89.19l-22.2-31.1a.52.52,0,0,1,0-.56L95.06,3.44A.5.5,0,0,1,96,3.81Z"/></g></g></svg>